PathFileType	4	(X/Y/Z)	C:/Users/beibeiliu/ov580/test_trc/capture2\sequence.17_training_dense_right.trc
DataRate	CameraRate	NumFrames	NumMarkers	Units	OrigDataRate	OrigDataStartFrame	OrigNumFrames
120	120	14	19	mm	120	351	400
Frame#	Time	ThumbCMC			ThumbMCP			ThumbIP			ThumbTip			IndexMCP			IndexPIP			IndexTip			MiddleMCP			MiddlePIP			MiddleTip			RingMCP			RingPIP			RingTip			PinkyMCP			PinkyPIP			PinkyTip			BackHand1			BackHand2			BackHand3	
		X0	Y0	Z0	X1	Y1	Z1	X2	Y2	Z2	X3	Y3	Z3	X4	Y4	Z4	X5	Y5	Z5	X6	Y6	Z6	X7	Y7	Z7	X8	Y8	Z8	X9	Y9	Z9	X10	Y10	Z10	X11	Y11	Z11	X12	Y12	Z12	X13	Y13	Z13	X14	Y14	Z14	X15	Y15	Z15	X16	Y16	Z16	X17	Y17	Z17	X18	Y18	Z18	
350	2.91667	125.934	103.051	21.4469	106.554	116.664	3.47389	84.4127	110.002	-12.0178	64.829	90.3094	-16.8782	93.7051	84.3592	-42.9505	67.0558	85.771	-58.0857	39.806	93.8933	-37.9963	83.3958	64.3312	-45.1339	54.0726	70.7142	-54.1913	32.833	81.47	-25.4255	79.4045	49.24	-34.6413	45.8616	55.3767	-41.5636	38.583	75.7572	-17.2093	76.2648	35.496	-20.0499	49.5328	38.5628	-28.4832	34.445	63.9394	-12.0945	114.617	41.8754	1.14137	132.981	39.4095	27.1838	133.752	69.4267	5.36111	
351	2.925	128.848	99.9836	23.2311	112.418	116.088	5.16274	90.8996	114.965	-15.5853	72.3774	90.1606	-15.2306	99.1172	82.1105	-42.2727	68.7127	86.6123	-58.8986	47.5662	97.9284	-43.565	89.9498	64.338	-44.9214	61.2106	73.3023	-59.067	38.6597	87.9177	-33.1944	82.1466	49.8499	-37.4292	51.2789	59.3192	-46.3048	38.6905	73.9279	-21.8358	78.6036	37.085	-19.5425	52.1011	45.4247	-33.2781	36.0914	68.5564	-14.6548	114.009	44.3417	-0.617517	133.777	39.1574	25.8671	133.837	68.2756	3.61359	
352	2.93333	132.604	99.4274	20.1667	117.576	116.708	3.19052	95.5045	112.452	-19.0406	78.2897	96.6218	-19.7824	105.725	84.2351	-45.2961	79.5126	86.3156	-63.6348	53.3588	99.0034	-48.1166	91.6671	65.6006	-51.1262	65.4175	76.0875	-62.3249	44.8118	94.3314	-35.5399	84.8498	49.5676	-38.9199	58.0751	59.4192	-51.4443	44.801	82.2912	-25.8222	79.4838	36.4912	-21.9474	55.66	47.6582	-38.3802	41.4632	72.1272	-21.8304	115.23	38.0948	1.50392	130.591	36.4408	27.536	136.681	69.0119	3.31188	
353	2.94167	136.848	96.8402	23.587	121.31	112.594	-1.62377	100.678	109.785	-20.3243	80.1656	93.3977	-23.8993	109.978	79.2479	-46.5682	87.7877	89.063	-67.8486	60.1937	100.032	-50.3929	97.6722	63.4524	-50.4126	70.3755	70.9604	-65.4222	49.8409	90.5098	-38.0012	86.9152	47.6903	-43.7482	60.0446	64.4131	-53.832	49.2922	81.0266	-31.6495	80.1884	35.9507	-25.6744	60.4535	47.7208	-41.7076	46.5043	73.5316	-25.7485	117.478	37.9904	1.61043	131.217	36.3658	21.7063	139.307	62.264	8.29142	
354	2.95	140.124	95.0728	22.4177	127.673	112.674	0.595329	107.746	109.699	-20.3896	86.0885	94.7316	-27.2209	117.037	79.6511	-51.1935	92.7259	87.7644	-69.1987	68.7816	101.501	-57.4148	103.074	63.1372	-55.9983	76.9073	72.0525	-68.435	57.1527	94.4216	-41.2435	92.9815	48.4762	-43.6585	64.705	61.24	-57.543	53.5746	83.1233	-33.4824	83.1074	36.5504	-31.5286	61.0657	47.4772	-44.8563	50.1837	73.3407	-28.8336	116.614	35.1919	0.540049	130.966	35.9277	23.3841	141.194	58.6674	8.6175	
355	2.95833	142.916	91.5816	24.5017	131.042	109.298	-4.0068	115.325	108.855	-22.4569	91.054	89.6434	-27.3342	121.774	73.8287	-49.8996	101.654	87.9112	-73.6751	75.8615	102.114	-59.0702	109.351	58.2113	-52.845	84.9168	70.3099	-72.0968	65.6694	93.8749	-48.9723	96.6992	46.2197	-48.7319	73.9053	63.1428	-62.4084	60.7063	83.4622	-37.6076	87.7794	36.022	-34.0248	67.5166	45.942	-47.6976	54.6972	72.568	-34.7275	118.9	34.0235	-3.04635	130.628	31.4069	24.6318	143.534	57.4235	7.16126	
356	2.96667	145.91	89.0198	22.5399	136.006	105.426	-3.38104	119.587	103.72	-23.6849	98.0488	89.433	-31.7399	130.388	70.2011	-51.3691	113.055	78.7031	-72.5228	87.7568	97.9914	-65.2491	116.337	54.8024	-58.0973	93.4141	70.1284	-74.2478	74.4293	91.5118	-51.4593	104.597	43.3325	-48.8329	80.7666	58.3544	-64.246	66.6563	78.3109	-45.068	90.5693	30.5128	-31.5668	74.163	44.685	-51.1054	62.719	73.4851	-35.1363	122.727	29.5937	0.222802	130.829	25.8644	26.386	147.696	56.814	7.31907	
357	2.975	147.93	84.8953	19.7968	141.972	102.433	-0.832421	126.537	100.287	-30.1313	104.101	81.4764	-30.0202	139.738	67.0684	-50.5319	121.702	78.7162	-75.7072	97.8069	93.618	-69.295	126.135	52.8941	-54.4923	102.616	64.3988	-76.3069	80.7759	85.8738	-56.4542	108.727	35.805	-46.581	90.7222	54.5209	-67.1526	76.9459	77.9244	-47.1866	98.4601	29.5353	-31.4906	83.9376	41.4275	-54.4072	71.3796	69.001	-45.2797	126.448	26.9054	-1.76579	133.843	26.1501	29.8158	149.468	46.8316	8.85557	
358	2.98333	153.269	82.345	21.6018	148.063	99.2751	-4.33761	134.705	97.0595	-30.2005	112.379	80.2514	-37.7231	149.408	61.7968	-49.4042	133.308	67.0411	-75.426	108.672	90.7422	-69.73	135.406	46.5106	-53.6832	114.596	56.035	-78.0512	95.1649	84.2072	-62.9905	120.419	34.5682	-46.9715	100.358	49.7216	-69.7448	87.2065	74.423	-51.2052	102.443	22.3966	-32.3901	91.2208	37.8586	-58.2698	81.6781	67.2475	-47.207	129.107	22.7404	-1.59019	132.419	23.1538	30.7774	154.628	45.9846	12.7822	
359	2.99167	156.413	79.1367	25.4327	152.646	92.1807	-3.71303	143.304	93.9997	-30.6249	119.581	75.2012	-40.5701	158.437	55.4886	-47.4902	144.432	66.2663	-78.1462	118.966	82.8209	-72.7136	141.037	38.5054	-53.4091	125.625	49.7266	-78.8315	106.225	80.7609	-66.3277	126.162	26.9479	-50.3595	110.304	43.8213	-72.6101	98.945	70.4215	-57.8124	111.799	21.2248	-37.5361	103.226	31.8426	-59.8065	86.9786	61.245	-54.0843	132.6	22.7696	3.80093	136.462	19.6018	29.9152	158.182	41.3828	14.0406	
360	3	160.122	76.2693	24.4856	158.071	88.2214	-4.34295	150	86.9672	-33.9306	127.308	68.9427	-40.4868	168.133	48.9373	-49.8199	155.427	55.3546	-75.0901	134.639	78.4452	-75.3261	151.302	32.8464	-55.089	137.181	45.1765	-80.6308	116.382	73.5765	-69.4796	136.165	20.6828	-51.9964	123.712	37.7307	-73.3374	107.934	62.7158	-62.3747	120.106	15.7715	-36.749	109.841	27.4083	-62.1584	98.9516	56.5709	-56.2663	138.075	16.5938	2.90691	141.498	20.5522	30.6485	161.282	37.9189	12.8098	
361	3.00833	165.492	73.6184	22.5722	166.105	86.8463	-7.32906	157.01	79.3589	-34.8496	135.016	62.053	-39.1005	176.317	43.4722	-46.418	165.199	49.6577	-75.1629	144.047	75.9179	-73.5237	164.447	28.6201	-50.7234	152.909	36.8167	-78.875	126.864	66.1976	-70.3497	145.424	16.0316	-46.4714	132.766	31.474	-74.5261	121.129	59.7412	-62.17	128.644	10.4043	-35.4902	124.75	23.9113	-62.8058	108.272	49.646	-60.5497	144.695	12.8106	6.58527	142.223	15.8807	32.7636	169.412	38.5119	14.5912	
362	3.01667	168.357	68.3295	25.9066	174.272	83.2783	-6.16021	167.682	77.9678	-33.0853	145.755	57.9278	-39.6332	186.544	38.1887	-40.4408	176.837	41.9196	-72.2702	156.562	65.635	-74.7808	171.252	19.7279	-49.0396	161.525	28.5563	-77.7982	137.806	56.3899	-71.0548	158.989	12.385	-46.8668	148.283	21.767	-71.2454	128.004	50.5967	-64.0413	137.86	4.46893	-34.9838	132.617	13.7641	-62.0628	123.618	45.3766	-60.4464	153.844	11.8235	7.01303	149.589	16.3491	33.5595	172.811	31.0871	22.6295	
363	3.025	176.733	70.0544	27.5259	179.263	77.723	-1.77067	174.11	68.5142	-33.5537	153.08	49.4637	-37.3826	197.056	32.1512	-38.6811	191.988	35.1856	-68.8583	164.499	57.504	-72.9807	182.597	13.7726	-46.2797	176.822	23.5717	-75.1141	152.069	50.7961	-70.7398	167.255	8.63604	-42.6569	157.635	18.1924	-70.7644	139.337	47.2677	-63.3255	145.758	-0.704837	-33.0355	143.161	9.32895	-60.6745	134.912	41.5824	-60.6407	157.688	8.33709	6.62427	154.773	12.3348	36.7059	178.356	27.925	24.6115	
